<svg xmlns="http://www.w3.org/2000/svg" xmlns:xlink="http://www.w3.org/1999/xlink" width="49" height="49" viewBox="0 0 49 49" version="1.1">
<g fill="none" transform="translate(-0.000092, -0.000000)">
 <path d="M24.500968,49 C10.9920621,49 6.68165433e-13,38.0088805 6.68165433e-13,24.5 C6.68165433e-13,10.9911195 10.9920621,-9.82594376e-15 24.500968,-9.82594376e-15 C38.009874,-9.82594376e-15 49.0000922,10.9911195 49.0000922,24.5 C49.0000922,38.0088805 38.009874,49 24.500968,49" id="Fill-1" fill="#4C9C2E"/>
 <path d="M32.0653284,32.3883086 C31.1480172,32.3883086 30.404949,31.6452418 30.404949,30.7279323 C30.404949,29.8106228 31.1480172,29.067556 32.0653284,29.067556 C32.9817177,29.067556 33.7257079,29.8106228 33.7257079,30.7279323 C33.7257079,31.6452418 32.9817177,32.3883086 32.0653284,32.3883086 M16.268215,26.9167187 C15.4108286,26.8300583 15.3112612,26.3064083 15.3112612,25.6730499 L15.2882131,15.7052606 C15.4135944,14.914254 15.6818733,14.3924478 16.7079712,14.3924478 L24.3709772,14.3924478 L32.2865894,14.3924478 C33.3136092,14.3924478 33.5809663,14.914254 33.7045037,15.7052606 L33.6906749,25.6730499 C33.6906749,26.3644892 33.5892636,26.8272926 32.7327991,26.9167187 C30.4077148,27.1601054 26.644434,27.5214976 24.384806,27.5214976 C22.1814152,27.5214976 18.4734496,27.1398231 16.268215,26.9167187 M16.9366076,32.3883086 C16.0192964,32.3883086 15.2762282,31.6452418 15.2762282,30.7279323 C15.2762282,29.8106228 16.0192964,29.067556 16.9366076,29.067556 C17.8529969,29.067556 18.596987,29.8106228 18.596987,30.7279323 C18.596987,31.6452418 17.8529969,32.3883086 16.9366076,32.3883086 M19.564082,11.4644327 L24.384806,11.4644327 L29.4350883,11.4644327 C30.4086367,11.4644327 30.4086367,12.9210649 29.4350883,12.9210649 L24.3709772,12.9210649 L19.564082,12.9210649 C18.5942212,12.9210649 18.5942212,11.4644327 19.564082,11.4644327 M37.5848685,17.2411778 L35.7640748,17.2411778 C35.7474802,17.2411778 35.7336514,17.2485532 35.7189007,17.250397 C35.7023061,16.0002747 35.692165,14.7261825 35.692165,13.6733509 C35.692165,12.0212719 33.9700169,10.5784685 32.4156584,9.93035936 C30.882504,9.29146943 27.2095714,9.19927752 24.500968,9.19651176 C21.7803796,9.19927752 17.7340691,9.29146943 16.2018367,9.93035936 C14.6465562,10.5784685 13.286723,11.1933885 13.286723,12.8445456 C13.286723,13.8254675 13.2728942,15.5347056 13.2562996,17.2448655 C13.2489243,17.2448655 13.2424708,17.2411778 13.2369393,17.2411778 L11.4143018,17.2411778 C11.1976504,17.2411778 11.0215635,17.4163424 11.0215635,17.6339153 L11.0215635,22.0609708 C11.0215635,22.2776218 11.1976504,22.4527865 11.4143018,22.4527865 L13.1972967,22.4527865 C13.1972967,22.4896632 13.1963748,22.5136331 13.1963748,22.5136331 L13.1963748,34.8820997 L13.1945309,36.8227394 C13.1945309,39.1883838 16.6563437,39.1883838 16.6563437,36.8227394 L16.6563437,34.8820997 L24.3636018,34.8820997 L24.384806,34.8820997 L32.361265,34.8820997 L32.361265,36.8227394 C32.361265,39.1883838 35.8230777,39.1883838 35.8230777,36.8227394 L35.8055613,34.8820997 L35.8055613,22.5136331 C35.8055613,22.5136331 35.8046393,22.4915071 35.8037174,22.4527865 L37.5848685,22.4527865 C37.8024418,22.4527865 37.9785287,22.2776218 37.9785287,22.0609708 L37.9785287,17.6339153 C37.9785287,17.4163424 37.8024418,17.2411778 37.5848685,17.2411778" id="Fill-6" fill="#FFFFFF"/>
 <polygon id="Fill-4" fill="#FFFFFF" points="24.86554 9.31 24.99 9.31 25.11446 9.31"/>
</g>
</svg>